<?xml version="1.0" encoding="utf-8"?><svg xmlns="http://www.w3.org/2000/svg" xmlns:xlink="http://www.w3.org/1999/xlink"><symbol viewBox="23 273 16 16" id="check-circle" xmlns="http://www.w3.org/2000/svg"><path d="M27.7 279.5l-1.1 1.1 3.6 3.6 8-8-1.1-1.1-6.9 6.9-2.5-2.5zm9.7 1.5c0 3.5-2.9 6.4-6.4 6.4s-6.4-2.9-6.4-6.4 2.9-6.4 6.4-6.4c.6 0 1.2.1 1.8.2l1.3-1.3c-1-.3-2-.6-3-.6-4.4 0-8 3.6-8 8s3.6 8 8 8 8-3.6 8-8h-1.7z"/></symbol><symbol viewBox="0 0 64 64" id="module" xmlns="http://www.w3.org/2000/svg"><path d="M47.8 36.1h-1.4c-.4 0-.7.3-.7.7 0 .4.3.7.7.7h1.4c.4 0 .7-.3.7-.7.1-.3-.3-.7-.7-.7zm0 0M39.2 43.3H24.8c-1.2 0-2.2 1-2.2 2.2 0 1.2 1 2.2 2.2 2.2h14.4c1.2 0 2.2-1 2.2-2.2 0-1.2-1-2.2-2.2-2.2zm0 2.9H24.8c-.4 0-.7-.3-.7-.7 0-.4.3-.7.7-.7h14.4c.4 0 .7.3.7.7 0 .4-.3.7-.7.7zm0 0"/><defs><path id="ba" d="M8.9 8.7h46.2v46.2H8.9z"/></defs><clipPath id="bb"><use xlink:href="#ba" overflow="visible"/></clipPath><path clip-path="url(#bb)" d="M16.8 31.8c.4 0 .7-.3.7-.7V18.8h28.8v12.3c0 .4.3.7.7.7.4 0 .7-.3.7-.7V18.8c0-.8-.6-1.4-1.4-1.4V16c0-.8-.6-1.4-1.4-1.4v-1.4c0-.8-.6-1.4-1.4-1.4v-1.4c0-.8-.6-1.4-1.4-1.4H21.9c-.8 0-1.4.6-1.4 1.4v1.4c-.8 0-1.4.6-1.4 1.4v1.4c-.8 0-1.4.6-1.4 1.4v1.4c-.8 0-1.4.6-1.4 1.4v12.3c-.2.4.1.7.5.7zm5.1-21.6h20.2v1.4H21.9v-1.4zm-1.5 2.9h23.1v1.4H20.4v-1.4zM19 15.9h26v1.4H19v-1.4zm0 0"/><path clip-path="url(#bb)" d="M55 35.2c0-.2-.1-.3-.1-.5l-2.8-12.6c-.2-1-1.1-1.8-2.1-1.8-.4 0-.7.3-.7.7s.3.7.7.7c.4 0 .7.3.7.6l2.4 10.9H10.8l2.4-10.9c.1-.4.4-.6.7-.6.4 0 .7-.3.7-.7s-.3-.7-.7-.7c-1.1 0-2 .8-2.1 1.8L9 34.7c0 .2-.1.3-.1.5v17.5c0 1.2 1 2.2 2.2 2.2h41.8c1.2 0 2.2-1 2.2-2.2V35.4v-.1l-.1-.1zm-1.4 17.5c0 .4-.3.7-.7.7H11.1c-.4 0-.7-.3-.7-.7V38.3c0-.4.3-.7.7-.7h32.4c.4 0 .7-.3.7-.7 0-.4-.3-.7-.7-.7H11.1c-.3 0-.5 0-.7.1v-.8l.1-.3c.1-.3.4-.4.7-.4H53c.3 0 .5.2.7.4l.1.3v.8c-.2-.1-.5-.1-.7-.1h-2.2c-.4 0-.7.3-.7.7 0 .4.3.7.7.7h2.2c.4 0 .7.3.7.7v14.4zm0 0"/><path d="M29.8 26c.4 0 .7-.3.7-.7 0-.4-.3-.7-.7-.7H24c-.4 0-.7.3-.7.7 0 .4.3.7.7.7h5.8zm0 0M34.9 22.4c0-.4-.3-.7-.7-.7H24.1c-.4 0-.7.3-.7.7 0 .4.3.7.7.7h10.1c.3.1.7-.3.7-.7zm0 0M20.4 23.2h.7c.4 0 .7-.3.7-.7 0-.4-.3-.7-.7-.7h-.7c-.4 0-.7.3-.7.7 0 .3.3.7.7.7zm0 0M20.4 26h.7c.4 0 .7-.3.7-.7 0-.4-.3-.7-.7-.7h-.7c-.4 0-.7.3-.7.7 0 .4.3.7.7.7zm0 0M20.4 30.4c-.4 0-.7.3-.7.7 0 .4.3.7.7.7h6.5c.4 0 .7-.3.7-.7 0-.4-.3-.7-.7-.7h-6.5zm0 0M32.7 28.2c0-.4-.3-.7-.7-.7H20.4c-.4 0-.7.3-.7.7 0 .4.3.7.7.7H32c.4 0 .7-.3.7-.7zm0 0M43.5 27.5h-3.6c-.4 0-.7.3-.7.7 0 .4.3.7.7.7h3.6c.4 0 .7-.3.7-.7 0-.4-.3-.7-.7-.7zm0 0M34.9 31.8h8.7c.4 0 .7-.3.7-.7 0-.4-.3-.7-.7-.7h-8.7c-.4 0-.7.3-.7.7-.1.4.3.7.7.7zm0 0"/></symbol><symbol viewBox="0 0 64 64" id="setting" xmlns="http://www.w3.org/2000/svg"><path d="M16 20.8c2.8 0 5.1-2.1 5.5-4.8h31.3c.4 0 .8-.4.8-.8s-.4-.8-.8-.8H21.5c-.4-2.7-2.7-4.8-5.5-4.8-3.1 0-5.6 2.5-5.6 5.6 0 3.1 2.5 5.6 5.6 5.6zm0-9.6c2.2 0 4 1.8 4 4s-1.8 4-4 4-4-1.8-4-4 1.8-4 4-4zm0 0M48 43.2c-2.8 0-5.1 2.1-5.5 4.8H11.2c-.4 0-.8.4-.8.8s.4.8.8.8h31.3c.4 2.7 2.7 4.8 5.5 4.8 3.1 0 5.6-2.5 5.6-5.6 0-3.1-2.5-5.6-5.6-5.6zm0 9.6c-2.2 0-4-1.8-4-4s1.8-4 4-4 4 1.8 4 4-1.8 4-4 4zm0 0M52.8 31.2H37.9c-.3-2.9-2.8-5.1-5.7-5.1-3 0-5.4 2.3-5.7 5.1H11.2c-.4 0-.8.4-.8.8s.4.8.8.8h15.3c.5 2.7 2.8 4.8 5.7 4.8 2.8 0 5.2-2.1 5.7-4.8h15c.4 0 .8-.4.8-.8-.1-.4-.5-.8-.9-.8zM32.2 36c-2.3 0-4.2-1.9-4.2-4.2 0-2.3 1.9-4.2 4.2-4.2 2.3 0 4.2 1.9 4.2 4.2-.1 2.3-1.9 4.2-4.2 4.2zm0 0"/></symbol><symbol viewBox="0 0 64 64" id="struct" xmlns="http://www.w3.org/2000/svg"><path fill="none" stroke="#000" stroke-width="2" stroke-linecap="round" stroke-miterlimit="10" d="M22 15h35M22 31h35M22 48h35"/><path fill="none" stroke="#000" stroke-width="1.5" stroke-linecap="round" stroke-linejoin="round" stroke-miterlimit="10" d="M11.8 9.3l1.6 3.3 3.7.5-2.7 2.6.7 3.6-3.3-1.7-3.2 1.7.6-3.6-2.6-2.6 3.6-.5zM11.8 25.3l1.6 3.3 3.7.5-2.7 2.6.7 3.6-3.3-1.7-3.2 1.7.6-3.6-2.6-2.6 3.6-.5zM11.8 43.3l1.6 3.3 3.7.5-2.7 2.6.7 3.6-3.3-1.7-3.2 1.7.6-3.6-2.6-2.6 3.6-.5z"/></symbol><symbol viewBox="0 0 64 64" id="template" xmlns="http://www.w3.org/2000/svg"><path fill="none" stroke="#000" stroke-width="1.5" stroke-linecap="round" stroke-linejoin="round" stroke-miterlimit="10" d="M43 57.3H15.1V6.4H51v43.7z"/><path fill="none" stroke="#000" stroke-width="2" stroke-linecap="round" stroke-miterlimit="10" d="M21 13.7h4M35 13.7h11M30 17.7h16M21 25.7h25M21 29.7h25M21 33.7h25M43 37.7h3M21 37.7h19M33 48.7h5"/><circle fill="none" stroke="#000" stroke-width="1.5" stroke-linecap="round" stroke-miterlimit="10" cx="25.1" cy="48.2" r="4.1"/><path fill="none" stroke="#000" stroke-width="2" stroke-linejoin="round" stroke-miterlimit="10" d="M42 57.7v-9h9"/></symbol></svg>