<?xml version="1.0" encoding="utf-8"?><svg xmlns="http://www.w3.org/2000/svg" xmlns:xlink="http://www.w3.org/1999/xlink"><symbol viewBox="0 0 48 48" id="adaptive" xmlns="http://www.w3.org/2000/svg"><path d="M32.1 34.2h-3.3c-.1 0-.2-.1-.2-.2v-.8c0-.1-.1-.2-.2-.2h-4.6c-.1 0-.2.1-.2.2v.8c0 .1-.1.2-.2.2h-2.5c-.1 0-.2.1-.2.2v.9c0 .1.1.2.2.2h11.3c.1 0 .2-.1.2-.2v-.9c0-.1-.1-.2-.3-.2zM37.7 12.3H14.1c-.8 0-1.5.7-1.5 1.5v3.9c0 .5 0 .6.3.6h.6c.3 0 .2-.1.2-.6v-3.9c0-.2.2-.4.4-.4h23.7c.2 0 .4.2.4.4v14.6h-17s-.6 0-.6.8V31c0 .8.6.8.6.8h16.5c.8 0 1.5-.7 1.5-1.5V13.8c0-.8-.7-1.5-1.5-1.5zM25.9 30.5c-.4 0-.7-.3-.7-.7 0-.4.3-.7.7-.7.4 0 .7.3.7.7 0 .4-.3.7-.7.7z"/><path d="M18.3 19.7H9.8c-.5 0-1 .4-1 1v14.1c0 .5.4 1 1 1h8.6c.5 0 1-.4 1-1V20.6c-.1-.5-.6-.9-1.1-.9zm-5.3.9h2.1c.1 0 .2.1.2.2s-.1.2-.2.2H13c-.1 0-.2-.1-.2-.2s.1-.2.2-.2zM14 35c-.3 0-.5-.2-.5-.5s.2-.5.5-.5.5.2.5.5-.2.5-.5.5zm4.4-1.5c0 .1-.1.2-.2.2H9.8c-.1 0-.2-.1-.2-.2V21.8c0-.1.1-.2.2-.2h8.4c.1 0 .2.1.2.2v11.7z"/></symbol><symbol viewBox="23 273 16 16" id="check-circle" xmlns="http://www.w3.org/2000/svg"><path d="M27.7 279.5l-1.1 1.1 3.6 3.6 8-8-1.1-1.1-6.9 6.9-2.5-2.5zm9.7 1.5c0 3.5-2.9 6.4-6.4 6.4s-6.4-2.9-6.4-6.4 2.9-6.4 6.4-6.4c.6 0 1.2.1 1.8.2l1.3-1.3c-1-.3-2-.6-3-.6-4.4 0-8 3.6-8 8s3.6 8 8 8 8-3.6 8-8h-1.7z"/></symbol><symbol viewBox="0 0 48 48" id="cms" xmlns="http://www.w3.org/2000/svg"><path d="M34.1 17.9c.2 0 .4-.2.4-.4v-1.7h1.2c.2 0 .4-.2.4-.4v-3.1c0-.2-.2-.4-.4-.4h-3.1c-.2 0-.4.2-.4.4v1.2H15.8v-1.2c0-.2-.2-.4-.4-.4h-3.1c-.2 0-.4.2-.4.4v3.1c0 .2.2.4.4.4h1.2v16.4h-1.2c-.2 0-.4.2-.4.4v3.1c0 .2.2.4.4.4h3.1c.2 0 .4-.2.4-.4v-1.2h16.4v1.2c0 .2.2.4.4.4h3.1c.2 0 .4-.2.4-.4v-3.1c0-.2-.2-.4-.4-.4h-1.2V19c0-.2-.2-.4-.4-.4s-.4.2-.4.4v13.2h-1.2c-.2 0-.4.2-.4.4v1.2H15.8v-1.2c0-.2-.2-.4-.4-.4h-1.2V15.8h1.2c.2 0 .4-.2.4-.4v-1.2h16.4v1.2c0 .2.2.4.4.4h1.2v1.7c-.1.2.1.4.3.4zM33 33h2.3v2.3H33V33zm-18 2.3h-2.3V33H15v2.3zM15 15h-2.3v-2.3H15V15zm18-2.3h2.3V15H33v-2.3z"/><path d="M30.9 17.5c0-.2-.2-.4-.4-.4h-13c-.2 0-.4.2-.4.4V24c0 .2.2.4.4.4h13.1c.2 0 .4-.2.4-.4v-6.5zm-13 .6l5.3 2.6-5.3 2.6v-5.2zm1.2-.2h9.8L24 20.3l-4.9-2.4zm4.9 3.3l4.9 2.5h-9.8l4.9-2.5zm.9-.5l5.3-2.6v5.3l-5.3-2.7zM23.2 30.1h-5.8c-.2 0-.4.2-.4.4s.2.4.4.4h5.8c.2 0 .4-.2.4-.4s-.2-.4-.4-.4zM30.5 30.1h-5.8c-.2 0-.4.2-.4.4s.2.4.4.4h5.8c.2 0 .4-.2.4-.4s-.2-.4-.4-.4zM23.2 28.5h-5.8c-.2 0-.4.2-.4.4s.2.4.4.4h5.8c.2 0 .4-.2.4-.4s-.2-.4-.4-.4zM30.5 28.5h-5.8c-.2 0-.4.2-.4.4s.2.4.4.4h5.8c.2 0 .4-.2.4-.4s-.2-.4-.4-.4zM23.2 26.9h-5.8c-.2 0-.4.2-.4.4s.2.4.4.4h5.8c.2 0 .4-.2.4-.4s-.2-.4-.4-.4zM30.5 26.9h-5.8c-.2 0-.4.2-.4.4s.2.4.4.4h5.8c.2 0 .4-.2.4-.4s-.2-.4-.4-.4zM30.5 25.2h-13c-.2 0-.4.2-.4.4s.2.4.4.4h13.1c.2 0 .4-.2.4-.4s-.3-.4-.5-.4z"/></symbol><symbol viewBox="0 0 48 48" id="design" xmlns="http://www.w3.org/2000/svg"><path d="M32.6 11.3c0-.2-.2-.3-.3-.4-.2-.1-.3 0-.5.1-.5.4-3.1 2.3-3.5 3.4-.2.7-.2 1.4.1 2.1-.6.9-1.3 2.1-1.8 3.4v-8.5c0-.3-.2-.5-.5-.5H22c-.3 0-.5.2-.5.5v10h-.1l-.9-3.4-.8-3v-.1l-3-3.6c-.1-.1-.3-.2-.5-.2s-.3.2-.4.4l-.9 4.6v.1l.8 3 .5 2.1c-.3.1-.6.2-.8.4-.3.3-.4.7-.4 1.1 0 .7.4 1.2 1 1.4v10.1c0 1.4 1.1 2.6 2.6 2.6h10.2c1.4 0 2.6-1.1 2.6-2.6v-9.9c.2-.1.4-.2.6-.4.3-.3.4-.7.4-1.1 0-.7-.5-1.4-1.2-1.5.3-1.4.6-2.7.7-3.8.7-.3 1.2-.8 1.5-1.5.1-1-.6-4.2-.8-4.8zm-3.5 6c.2.2.4.3.7.4.2.1.5.1.8.2-.1 1-.3 2.3-.7 3.6H27c.8-1.8 1.5-3.2 2.1-4.2zm-6.6-5.4h3.1v1.2h-1c-.3 0-.5.2-.5.5s.2.5.5.5h1v1h-1c-.3 0-.5.2-.5.5s.2.5.5.5h1v1h-1c-.3 0-.5.2-.5.5s.2.5.5.5h1v1h-1c-.3 0-.5.2-.5.5s.2.5.5.5h1v1.2h-3.1v-9.4zm-6 .9l2.1 2.5c-.3.4-.7.7-1.2.8-.5.1-1 .1-1.5-.1l.6-3.2zm-.5 4.3c.2 0 .5.1.7.1.3 0 .6 0 .9-.1.5-.1 1-.4 1.4-.7l.5 2 .8 3.1h-3.2l-.6-2.3-.5-2.1zm14.2 17.4c0 .8-.7 1.5-1.5 1.5H18.4c-.8 0-1.5-.7-1.5-1.5v-10h13.3v10zm1-11.5c0 .1-.1.3-.1.4-.1.1-.2.1-.4.1H16.4c-.3 0-.5-.2-.5-.5 0-.1.1-.3.1-.4.1-.1.2-.1.4-.1h14.3c.3 0 .5.2.5.5zm.9-7.1c-.2.5-.6.9-1.1 1-.3.1-.6 0-.9-.1-.3-.1-.5-.3-.7-.5-.3-.4-.4-1-.2-1.4.2-.5 1.4-1.6 2.5-2.5.4 1.3.6 2.9.4 3.5z"/></symbol><symbol viewBox="0 0 48 48" id="html" xmlns="http://www.w3.org/2000/svg"><path d="M13.4 15c.1 0 .2 0 .3-.1.1-.1.1-.2.1-.3 0-.1 0-.2-.1-.3-.1-.1-.2-.1-.3-.1-.1 0-.2 0-.3.1-.1.1-.1.2-.1.3 0 .1 0 .2.1.3.1 0 .2.1.3.1zM14.7 15c.1 0 .2 0 .3-.1.1-.1.1-.2.1-.3 0-.1 0-.2-.1-.3-.1-.1-.2-.1-.3-.1s-.2 0-.3.1c-.1.1-.1.2-.1.3 0 .1 0 .2.1.3.1 0 .2.1.3.1zM15.9 15c.1 0 .2 0 .3-.1.1-.1.1-.2.1-.3 0-.1 0-.2-.1-.3-.1-.1-.2-.1-.3-.1-.1 0-.2 0-.3.1-.1.1-.1.2-.1.3 0 .1 0 .2.1.3.1 0 .2.1.3.1zM31 24.2c-.5 0-.9-.4-.9-.9V22c0-.9-.7-1.6-1.6-1.6H28c-.2 0-.4.2-.4.4s.2.4.4.4h.4c.5 0 .9.4.9.9v1.3c0 .5.2 1 .6 1.3-.4.3-.6.8-.6 1.3v1.3c0 .5-.4.9-.9.9H28c-.2 0-.4.2-.4.4s.2.4.4.4h.4c.9 0 1.6-.7 1.6-1.6v-1.3c0-.5.4-.9.9-.9.2 0 .4-.2.4-.4s-.1-.6-.3-.6zM20.1 23.3V22c0-.5.4-.9.9-.9h.4c.2 0 .4-.2.4-.4s-.2-.4-.4-.4H21c-.9 0-1.6.7-1.6 1.6v1.3c0 .5-.4.9-.9.9-.2 0-.4.2-.4.4s.2.4.4.4c.5 0 .9.4.9.9v1.3c0 .9.7 1.6 1.6 1.6h.4c.2 0 .4-.2.4-.4s-.2-.3-.4-.3H21c-.5 0-.9-.4-.9-.9v-1.3c0-.5-.2-1-.6-1.3.4-.2.6-.7.6-1.2zM26.8 26.3c-.1 0-.2 0-.3.1-.1.1-.1.2-.1.3s0 .2.1.3c.1.1.2.1.3.1.1 0 .2 0 .3-.1.1-.1.1-.2.1-.3s0-.2-.1-.3c-.1-.1-.2-.1-.3-.1zM24.7 26.3c-.1 0-.2 0-.3.1-.1.1-.1.2-.1.3 0 .1 0 .2.1.3.1.1.2.1.3.1s.2 0 .3-.1c.1-.1.1-.2.1-.3s0-.2-.1-.3c-.1-.1-.2-.1-.3-.1zM22.6 26.3c-.1 0-.2 0-.3.1-.1.1-.1.2-.1.3s0 .2.1.3c.1.1.2.1.3.1.1 0 .2 0 .3-.1.1-.1.1-.2.1-.3s0-.2-.1-.3c-.1-.1-.2-.1-.3-.1zM17.6 15h15.9c.2 0 .4-.2.4-.4s-.2-.4-.4-.4H17.6c-.2 0-.4.2-.4.4s.2.4.4.4zM35.2 15h.8c.2 0 .4-.2.4-.4s-.2-.4-.4-.4h-.8c-.2 0-.4.2-.4.4s.1.4.4.4z"/><path d="M36 12.5H13.4c-1.1 0-2.1.9-2.1 2.1v16.7c0 1.1.9 2.1 2.1 2.1H36c1.1 0 2.1-.9 2.1-2.1V14.6c0-1.2-1-2.1-2.1-2.1zm-22.6.8H36c.7 0 1.3.6 1.3 1.3v1.3H12.1v-1.3c0-.7.6-1.3 1.3-1.3zM36 32.6H13.4c-.7 0-1.3-.6-1.3-1.3V16.6h25.1v14.7c.1.7-.5 1.3-1.2 1.3z"/></symbol><symbol viewBox="0 0 64 64" id="module" xmlns="http://www.w3.org/2000/svg"><path d="M47.8 36.1h-1.4c-.4 0-.7.3-.7.7 0 .4.3.7.7.7h1.4c.4 0 .7-.3.7-.7.1-.3-.3-.7-.7-.7zm0 0M39.2 43.3H24.8c-1.2 0-2.2 1-2.2 2.2 0 1.2 1 2.2 2.2 2.2h14.4c1.2 0 2.2-1 2.2-2.2 0-1.2-1-2.2-2.2-2.2zm0 2.9H24.8c-.4 0-.7-.3-.7-.7 0-.4.3-.7.7-.7h14.4c.4 0 .7.3.7.7 0 .4-.3.7-.7.7zm0 0"/><defs><path id="fa" d="M8.9 8.7h46.2v46.2H8.9z"/></defs><clipPath id="fb"><use xlink:href="#fa" overflow="visible"/></clipPath><path clip-path="url(#fb)" d="M16.8 31.8c.4 0 .7-.3.7-.7V18.8h28.8v12.3c0 .4.3.7.7.7.4 0 .7-.3.7-.7V18.8c0-.8-.6-1.4-1.4-1.4V16c0-.8-.6-1.4-1.4-1.4v-1.4c0-.8-.6-1.4-1.4-1.4v-1.4c0-.8-.6-1.4-1.4-1.4H21.9c-.8 0-1.4.6-1.4 1.4v1.4c-.8 0-1.4.6-1.4 1.4v1.4c-.8 0-1.4.6-1.4 1.4v1.4c-.8 0-1.4.6-1.4 1.4v12.3c-.2.4.1.7.5.7zm5.1-21.6h20.2v1.4H21.9v-1.4zm-1.5 2.9h23.1v1.4H20.4v-1.4zM19 15.9h26v1.4H19v-1.4zm0 0"/><path clip-path="url(#fb)" d="M55 35.2c0-.2-.1-.3-.1-.5l-2.8-12.6c-.2-1-1.1-1.8-2.1-1.8-.4 0-.7.3-.7.7s.3.7.7.7c.4 0 .7.3.7.6l2.4 10.9H10.8l2.4-10.9c.1-.4.4-.6.7-.6.4 0 .7-.3.7-.7s-.3-.7-.7-.7c-1.1 0-2 .8-2.1 1.8L9 34.7c0 .2-.1.3-.1.5v17.5c0 1.2 1 2.2 2.2 2.2h41.8c1.2 0 2.2-1 2.2-2.2V35.4v-.1l-.1-.1zm-1.4 17.5c0 .4-.3.7-.7.7H11.1c-.4 0-.7-.3-.7-.7V38.3c0-.4.3-.7.7-.7h32.4c.4 0 .7-.3.7-.7 0-.4-.3-.7-.7-.7H11.1c-.3 0-.5 0-.7.1v-.8l.1-.3c.1-.3.4-.4.7-.4H53c.3 0 .5.2.7.4l.1.3v.8c-.2-.1-.5-.1-.7-.1h-2.2c-.4 0-.7.3-.7.7 0 .4.3.7.7.7h2.2c.4 0 .7.3.7.7v14.4zm0 0"/><path d="M29.8 26c.4 0 .7-.3.7-.7 0-.4-.3-.7-.7-.7H24c-.4 0-.7.3-.7.7 0 .4.3.7.7.7h5.8zm0 0M34.9 22.4c0-.4-.3-.7-.7-.7H24.1c-.4 0-.7.3-.7.7 0 .4.3.7.7.7h10.1c.3.1.7-.3.7-.7zm0 0M20.4 23.2h.7c.4 0 .7-.3.7-.7 0-.4-.3-.7-.7-.7h-.7c-.4 0-.7.3-.7.7 0 .3.3.7.7.7zm0 0M20.4 26h.7c.4 0 .7-.3.7-.7 0-.4-.3-.7-.7-.7h-.7c-.4 0-.7.3-.7.7 0 .4.3.7.7.7zm0 0M20.4 30.4c-.4 0-.7.3-.7.7 0 .4.3.7.7.7h6.5c.4 0 .7-.3.7-.7 0-.4-.3-.7-.7-.7h-6.5zm0 0M32.7 28.2c0-.4-.3-.7-.7-.7H20.4c-.4 0-.7.3-.7.7 0 .4.3.7.7.7H32c.4 0 .7-.3.7-.7zm0 0M43.5 27.5h-3.6c-.4 0-.7.3-.7.7 0 .4.3.7.7.7h3.6c.4 0 .7-.3.7-.7 0-.4-.3-.7-.7-.7zm0 0M34.9 31.8h8.7c.4 0 .7-.3.7-.7 0-.4-.3-.7-.7-.7h-8.7c-.4 0-.7.3-.7.7-.1.4.3.7.7.7zm0 0"/></symbol><symbol viewBox="0 0 64 64" id="setting" xmlns="http://www.w3.org/2000/svg"><path d="M16 20.8c2.8 0 5.1-2.1 5.5-4.8h31.3c.4 0 .8-.4.8-.8s-.4-.8-.8-.8H21.5c-.4-2.7-2.7-4.8-5.5-4.8-3.1 0-5.6 2.5-5.6 5.6 0 3.1 2.5 5.6 5.6 5.6zm0-9.6c2.2 0 4 1.8 4 4s-1.8 4-4 4-4-1.8-4-4 1.8-4 4-4zm0 0M48 43.2c-2.8 0-5.1 2.1-5.5 4.8H11.2c-.4 0-.8.4-.8.8s.4.8.8.8h31.3c.4 2.7 2.7 4.8 5.5 4.8 3.1 0 5.6-2.5 5.6-5.6 0-3.1-2.5-5.6-5.6-5.6zm0 9.6c-2.2 0-4-1.8-4-4s1.8-4 4-4 4 1.8 4 4-1.8 4-4 4zm0 0M52.8 31.2H37.9c-.3-2.9-2.8-5.1-5.7-5.1-3 0-5.4 2.3-5.7 5.1H11.2c-.4 0-.8.4-.8.8s.4.8.8.8h15.3c.5 2.7 2.8 4.8 5.7 4.8 2.8 0 5.2-2.1 5.7-4.8h15c.4 0 .8-.4.8-.8-.1-.4-.5-.8-.9-.8zM32.2 36c-2.3 0-4.2-1.9-4.2-4.2 0-2.3 1.9-4.2 4.2-4.2 2.3 0 4.2 1.9 4.2 4.2-.1 2.3-1.9 4.2-4.2 4.2zm0 0"/></symbol><symbol viewBox="0 0 64 64" id="struct" xmlns="http://www.w3.org/2000/svg"><path fill="none" stroke="#000" stroke-width="2" stroke-linecap="round" stroke-miterlimit="10" d="M22 15h35M22 31h35M22 48h35"/><path fill="none" stroke="#000" stroke-width="1.5" stroke-linecap="round" stroke-linejoin="round" stroke-miterlimit="10" d="M11.8 9.3l1.6 3.3 3.7.5-2.7 2.6.7 3.6-3.3-1.7-3.2 1.7.6-3.6-2.6-2.6 3.6-.5zM11.8 25.3l1.6 3.3 3.7.5-2.7 2.6.7 3.6-3.3-1.7-3.2 1.7.6-3.6-2.6-2.6 3.6-.5zM11.8 43.3l1.6 3.3 3.7.5-2.7 2.6.7 3.6-3.3-1.7-3.2 1.7.6-3.6-2.6-2.6 3.6-.5z"/></symbol><symbol viewBox="0 0 64 64" id="template" xmlns="http://www.w3.org/2000/svg"><path fill="none" stroke="#000" stroke-width="1.5" stroke-linecap="round" stroke-linejoin="round" stroke-miterlimit="10" d="M43 57.3H15.1V6.4H51v43.7z"/><path fill="none" stroke="#000" stroke-width="2" stroke-linecap="round" stroke-miterlimit="10" d="M21 13.7h4M35 13.7h11M30 17.7h16M21 25.7h25M21 29.7h25M21 33.7h25M43 37.7h3M21 37.7h19M33 48.7h5"/><circle fill="none" stroke="#000" stroke-width="1.5" stroke-linecap="round" stroke-miterlimit="10" cx="25.1" cy="48.2" r="4.1"/><path fill="none" stroke="#000" stroke-width="2" stroke-linejoin="round" stroke-miterlimit="10" d="M42 57.7v-9h9"/></symbol></svg>