<svg class="clip mask"  width="0" height="0" viewBox="0 0 500 420">
  <defs>
    <mask id="clip-tech" viewBox="0 0 500 420">
      <rect x="0" y="0" width="100%" height="100%" fill="#FFF"/>
    	<path d="M130.3,121.1H97.4V71.7h-38v49.4H26.5V0h32.9v44.9h38V0h32.9V121.1z"/>
    	<path d="M209.9,121.1h-32.7V26.8h-29.6V0h91.8v26.8h-29.5V121.1z"/>
    	<path d="M309.4,121.1l-24.8-87.2h-0.7c1.2,14.9,1.7,26.4,1.7,34.6v52.6h-29V0h43.6l25.3,86h0.7l24.8-86h43.6v121.1h-30.1V68
    		c0-2.8,0-5.8,0.1-9.2c0.1-3.4,0.5-11.6,1.1-24.8H365l-24.4,87H309.4z"/>
    	<path d="M420.7,121.1V0h32.7v94.7H500v26.4H420.7z"/>
    	<path d="M80.4,155c-7.8,0-13.9,3.2-18.2,9.6c-4.4,6.4-6.5,15.2-6.5,26.4c0,23.3,8.9,34.9,26.6,34.9c5.4,0,10.5-0.7,15.6-2.2
    		c5-1.5,10.1-3.3,15.2-5.4v27.7c-10.1,4.5-21.5,6.7-34.3,6.7c-18.3,0-32.3-5.3-42-15.9c-9.7-10.6-14.6-25.9-14.6-46
    		c0-12.5,2.4-23.5,7.1-33c4.7-9.5,11.5-16.8,20.4-21.9c8.9-5.1,19.3-7.7,31.3-7.7c13.1,0,25.6,2.8,37.5,8.5l-10,25.8
    		c-4.5-2.1-8.9-3.9-13.4-5.3C90.4,155.7,85.6,155,80.4,155z"/>
    	<path d="M215.8,214.2c0,7.5-1.9,14.2-5.7,20c-3.8,5.8-9.3,10.4-16.5,13.6c-7.2,3.2-15.6,4.8-25.3,4.8c-8.1,0-14.8-0.6-20.3-1.7
    		c-5.5-1.1-11.2-3.1-17.1-5.9v-29.2c6.2,3.2,12.7,5.7,19.5,7.5c6.7,1.8,12.9,2.7,18.6,2.7c4.9,0,8.4-0.8,10.7-2.5
    		c2.3-1.7,3.4-3.9,3.4-6.5c0-1.7-0.5-3.1-1.4-4.3c-0.9-1.2-2.4-2.5-4.4-3.8c-2-1.3-7.4-3.9-16.1-7.8c-7.9-3.6-13.8-7.1-17.8-10.4
    		c-3.9-3.4-6.9-7.2-8.8-11.6c-1.9-4.4-2.9-9.5-2.9-15.5c0-11.2,4.1-19.8,12.2-26.1c8.1-6.2,19.3-9.4,33.5-9.4
    		c12.5,0,25.3,2.9,38.3,8.7l-10,25.3c-11.3-5.2-21.1-7.8-29.3-7.8c-4.3,0-7.3,0.7-9.3,2.2c-1.9,1.5-2.9,3.3-2.9,5.5
    		c0,2.4,1.2,4.5,3.7,6.4c2.5,1.9,9.1,5.3,20,10.3c10.4,4.7,17.7,9.7,21.7,15.1C213.7,199.3,215.8,206,215.8,214.2z"/>
    	<path d="M313.6,214.2c0,7.5-1.9,14.2-5.7,20c-3.8,5.8-9.3,10.4-16.5,13.6c-7.2,3.2-15.6,4.8-25.3,4.8c-8.1,0-14.8-0.6-20.3-1.7
    		c-5.5-1.1-11.2-3.1-17.1-5.9v-29.2c6.2,3.2,12.7,5.7,19.5,7.5c6.7,1.8,12.9,2.7,18.6,2.7c4.9,0,8.4-0.8,10.7-2.5
    		c2.3-1.7,3.4-3.9,3.4-6.5c0-1.7-0.5-3.1-1.4-4.3c-0.9-1.2-2.4-2.5-4.4-3.8c-2-1.3-7.4-3.9-16.1-7.8c-7.9-3.6-13.8-7.1-17.8-10.4
    		c-3.9-3.4-6.9-7.2-8.8-11.6c-1.9-4.4-2.9-9.5-2.9-15.5c0-11.2,4.1-19.8,12.2-26.1c8.1-6.2,19.3-9.4,33.5-9.4
    		c12.5,0,25.3,2.9,38.3,8.7l-10,25.3c-11.3-5.2-21.1-7.8-29.3-7.8c-4.3,0-7.3,0.7-9.3,2.2c-1.9,1.5-2.9,3.3-2.9,5.5
    		c0,2.4,1.2,4.5,3.7,6.4c2.5,1.9,9.1,5.3,20,10.3c10.4,4.7,17.7,9.7,21.7,15.1C311.6,199.3,313.6,206,313.6,214.2z"/>
    	<path d="M17,418.9c-6,0-11.6-0.6-17-1.7v-25.4c1.8,0.3,3.6,0.7,5.6,1.1c2,0.4,4.1,0.6,6.5,0.6c5.4,0,9.3-1.6,11.6-4.9
    		c2.3-3.3,3.5-8.8,3.5-16.7V259.8H60v109.2c0,16.4-3.6,28.8-10.8,37.2C42.1,414.7,31.3,418.9,17,418.9z"/>
    	<path d="M165.4,344.1c0,7.5-1.9,14.2-5.7,20c-3.8,5.8-9.3,10.4-16.5,13.6c-7.2,3.2-15.6,4.8-25.3,4.8c-8.1,0-14.8-0.6-20.3-1.7
    		c-5.5-1.1-11.2-3.1-17.1-5.9v-29.2c6.2,3.2,12.7,5.7,19.5,7.5c6.7,1.8,12.9,2.7,18.6,2.7c4.9,0,8.4-0.8,10.7-2.5
    		c2.3-1.7,3.4-3.9,3.4-6.5c0-1.7-0.5-3.1-1.4-4.3c-0.9-1.2-2.4-2.5-4.4-3.8c-2-1.3-7.4-3.9-16.1-7.8c-7.9-3.6-13.8-7.1-17.8-10.4
    		c-3.9-3.4-6.9-7.2-8.8-11.6c-1.9-4.4-2.9-9.5-2.9-15.5c0-11.2,4.1-19.8,12.2-26.1c8.1-6.2,19.3-9.4,33.5-9.4
    		c12.5,0,25.3,2.9,38.3,8.7l-10,25.3c-11.3-5.2-21.1-7.8-29.3-7.8c-4.3,0-7.3,0.7-9.3,2.2c-1.9,1.5-2.9,3.3-2.9,5.5
    		c0,2.4,1.2,4.5,3.7,6.4c2.5,1.9,9.1,5.3,20,10.3c10.4,4.7,17.7,9.7,21.7,15.1C163.4,329.2,165.4,336,165.4,344.1z"/>
    </mask>
  </defs>
</svg>

