<?xml version="1.0" encoding="utf-8"?>
<!-- Generator: Adobe Illustrator 21.1.0, SVG Export Plug-In . SVG Version: 6.00 Build 0)  -->
<svg version="1.1" id="Capa_1" xmlns="http://www.w3.org/2000/svg" xmlns:xlink="http://www.w3.org/1999/xlink" x="0px" y="0px"
	 viewBox="0 0 48 48" style="enable-background:new 0 0 48 48;" xml:space="preserve">
<g>
	<path d="M32.1,34.2h-3.3c-0.1,0-0.2-0.1-0.2-0.2v-0.8c0-0.1-0.1-0.2-0.2-0.2h-4.6c-0.1,0-0.2,0.1-0.2,0.2V34c0,0.1-0.1,0.2-0.2,0.2
		h-2.5c-0.1,0-0.2,0.1-0.2,0.2v0.9c0,0.1,0.1,0.2,0.2,0.2h11.3c0.1,0,0.2-0.1,0.2-0.2v-0.9C32.4,34.3,32.3,34.2,32.1,34.2z"/>
	<g>
		<path d="M37.7,12.3H14.1c-0.8,0-1.5,0.7-1.5,1.5c0,0,0,2.8,0,3.9c0,0.5,0,0.6,0.3,0.6c0.2,0,0.4,0,0.6,0c0.3,0,0.2-0.1,0.2-0.6
			c0-1,0-3.9,0-3.9c0-0.2,0.2-0.4,0.4-0.4h23.7c0.2,0,0.4,0.2,0.4,0.4v14.6H21.2c0,0-0.6,0-0.6,0.8c0,0.5,0,1.4,0,1.8
			c0,0.8,0.6,0.8,0.6,0.8h16.5c0.8,0,1.5-0.7,1.5-1.5V13.8C39.2,13,38.5,12.3,37.7,12.3z M25.9,30.5c-0.4,0-0.7-0.3-0.7-0.7
			c0-0.4,0.3-0.7,0.7-0.7c0.4,0,0.7,0.3,0.7,0.7C26.6,30.2,26.3,30.5,25.9,30.5z"/>
		<path d="M18.3,19.7H9.8c-0.5,0-1,0.4-1,1v14.1c0,0.5,0.4,1,1,1h8.6c0.5,0,1-0.4,1-1V20.6C19.3,20.1,18.8,19.7,18.3,19.7z M13,20.6
			h2.1c0.1,0,0.2,0.1,0.2,0.2c0,0.1-0.1,0.2-0.2,0.2H13c-0.1,0-0.2-0.1-0.2-0.2C12.8,20.7,12.9,20.6,13,20.6z M14,35
			c-0.3,0-0.5-0.2-0.5-0.5c0-0.3,0.2-0.5,0.5-0.5c0.3,0,0.5,0.2,0.5,0.5C14.5,34.8,14.3,35,14,35z M18.4,33.5c0,0.1-0.1,0.2-0.2,0.2
			H9.8c-0.1,0-0.2-0.1-0.2-0.2V21.8c0-0.1,0.1-0.2,0.2-0.2h8.4c0.1,0,0.2,0.1,0.2,0.2C18.4,21.8,18.4,33.5,18.4,33.5z"/>
	</g>
</g>
</svg>
