<?xml version="1.0" encoding="utf-8"?>
<!-- Generator: Adobe Illustrator 18.1.1, SVG Export Plug-In . SVG Version: 6.00 Build 0)  -->
<svg version="1.1" id="Capa_1" xmlns="http://www.w3.org/2000/svg" xmlns:xlink="http://www.w3.org/1999/xlink" x="0px" y="0px"
	 viewBox="23 273 16 16" enable-background="new 23 273 16 16" xml:space="preserve">
<g>
	<g id="check-circle-outline">
		<path d="M27.7,279.5l-1.1,1.1l3.6,3.6l8-8l-1.1-1.1l-6.9,6.9L27.7,279.5z M37.4,281c0,3.5-2.9,6.4-6.4,6.4s-6.4-2.9-6.4-6.4
			s2.9-6.4,6.4-6.4c0.6,0,1.2,0.1,1.8,0.2l1.3-1.3c-1-0.3-2-0.6-3-0.6c-4.4,0-8,3.6-8,8s3.6,8,8,8s8-3.6,8-8H37.4z"/>
	</g>
</g>
</svg>
