<?xml version="1.0" encoding="utf-8"?>
<!-- Generator: Adobe Illustrator 21.1.0, SVG Export Plug-In . SVG Version: 6.00 Build 0)  -->
<svg version="1.1" id="Capa_1" xmlns="http://www.w3.org/2000/svg" xmlns:xlink="http://www.w3.org/1999/xlink" x="0px" y="0px"
	 viewBox="0 0 48 48" style="enable-background:new 0 0 48 48;" xml:space="preserve">
<g>
	<path d="M34.1,17.9c0.2,0,0.4-0.2,0.4-0.4v-1.7h1.2c0.2,0,0.4-0.2,0.4-0.4v-3.1c0-0.2-0.2-0.4-0.4-0.4h-3.1c-0.2,0-0.4,0.2-0.4,0.4
		v1.2H15.8v-1.2c0-0.2-0.2-0.4-0.4-0.4h-3.1c-0.2,0-0.4,0.2-0.4,0.4v3.1c0,0.2,0.2,0.4,0.4,0.4h1.2v16.4h-1.2
		c-0.2,0-0.4,0.2-0.4,0.4v3.1c0,0.2,0.2,0.4,0.4,0.4h3.1c0.2,0,0.4-0.2,0.4-0.4v-1.2h16.4v1.2c0,0.2,0.2,0.4,0.4,0.4h3.1
		c0.2,0,0.4-0.2,0.4-0.4v-3.1c0-0.2-0.2-0.4-0.4-0.4h-1.2V19c0-0.2-0.2-0.4-0.4-0.4c-0.2,0-0.4,0.2-0.4,0.4v13.2h-1.2
		c-0.2,0-0.4,0.2-0.4,0.4v1.2H15.8v-1.2c0-0.2-0.2-0.4-0.4-0.4h-1.2V15.8h1.2c0.2,0,0.4-0.2,0.4-0.4v-1.2h16.4v1.2
		c0,0.2,0.2,0.4,0.4,0.4h1.2v1.7C33.7,17.7,33.9,17.9,34.1,17.9z M33,33h2.3v2.3H33V33z M15,35.3h-2.3V33H15V35.3z M15,15h-2.3v-2.3
		H15V15z M33,12.7h2.3V15H33V12.7z"/>
	<path d="M30.9,17.5c0-0.2-0.2-0.4-0.4-0.4H17.5c-0.2,0-0.4,0.2-0.4,0.4V24c0,0.2,0.2,0.4,0.4,0.4h13.1c0.2,0,0.4-0.2,0.4-0.4V17.5z
		 M17.9,18.1l5.3,2.6l-5.3,2.6V18.1z M19.1,17.9h9.8L24,20.3L19.1,17.9z M24,21.2l4.9,2.5h-9.8L24,21.2z M24.9,20.7l5.3-2.6v5.3
		L24.9,20.7z"/>
	<path d="M23.2,30.1h-5.8c-0.2,0-0.4,0.2-0.4,0.4c0,0.2,0.2,0.4,0.4,0.4h5.8c0.2,0,0.4-0.2,0.4-0.4C23.6,30.3,23.4,30.1,23.2,30.1z"
		/>
	<path d="M30.5,30.1h-5.8c-0.2,0-0.4,0.2-0.4,0.4c0,0.2,0.2,0.4,0.4,0.4h5.8c0.2,0,0.4-0.2,0.4-0.4C30.9,30.3,30.7,30.1,30.5,30.1z"
		/>
	<path d="M23.2,28.5h-5.8c-0.2,0-0.4,0.2-0.4,0.4c0,0.2,0.2,0.4,0.4,0.4h5.8c0.2,0,0.4-0.2,0.4-0.4C23.6,28.7,23.4,28.5,23.2,28.5z"
		/>
	<path d="M30.5,28.5h-5.8c-0.2,0-0.4,0.2-0.4,0.4c0,0.2,0.2,0.4,0.4,0.4h5.8c0.2,0,0.4-0.2,0.4-0.4C30.9,28.7,30.7,28.5,30.5,28.5z"
		/>
	<path d="M23.2,26.9h-5.8c-0.2,0-0.4,0.2-0.4,0.4c0,0.2,0.2,0.4,0.4,0.4h5.8c0.2,0,0.4-0.2,0.4-0.4C23.6,27.1,23.4,26.9,23.2,26.9z"
		/>
	<path d="M30.5,26.9h-5.8c-0.2,0-0.4,0.2-0.4,0.4c0,0.2,0.2,0.4,0.4,0.4h5.8c0.2,0,0.4-0.2,0.4-0.4C30.9,27.1,30.7,26.9,30.5,26.9z"
		/>
	<path d="M30.5,25.2H17.5c-0.2,0-0.4,0.2-0.4,0.4s0.2,0.4,0.4,0.4h13.1c0.2,0,0.4-0.2,0.4-0.4S30.7,25.2,30.5,25.2z"/>
</g>
</svg>
