<?xml version="1.0" encoding="utf-8"?>
<!-- Generator: Adobe Illustrator 21.1.0, SVG Export Plug-In . SVG Version: 6.00 Build 0)  -->
<svg version="1.1" id="Capa_1" xmlns="http://www.w3.org/2000/svg" xmlns:xlink="http://www.w3.org/1999/xlink" x="0px" y="0px"
	 viewBox="0 0 48 48" style="enable-background:new 0 0 48 48;" xml:space="preserve">
<g>
	<g>
		<path d="M32.6,11.3c0-0.2-0.2-0.3-0.3-0.4c-0.2-0.1-0.3,0-0.5,0.1c-0.5,0.4-3.1,2.3-3.5,3.4c-0.2,0.7-0.2,1.4,0.1,2.1
			c-0.6,0.9-1.3,2.1-1.8,3.4v-8.5c0-0.3-0.2-0.5-0.5-0.5H22c-0.3,0-0.5,0.2-0.5,0.5v10h-0.1L20.5,18c0,0,0,0,0,0l-0.8-3c0,0,0,0,0,0
			c0,0,0,0,0-0.1c0,0,0,0,0,0c0,0,0,0,0,0c0,0,0,0,0,0c0,0,0,0,0,0c0,0,0,0,0,0c0,0,0,0,0,0c0,0,0,0,0,0l-3-3.6
			c-0.1-0.1-0.3-0.2-0.5-0.2c-0.2,0-0.3,0.2-0.4,0.4l-0.9,4.6c0,0,0,0,0,0c0,0,0,0,0,0c0,0,0,0,0,0c0,0,0,0,0,0c0,0,0,0,0,0
			c0,0,0,0,0,0c0,0,0,0,0,0c0,0,0,0,0,0.1l0.8,3l0.5,2.1c-0.3,0.1-0.6,0.2-0.8,0.4c-0.3,0.3-0.4,0.7-0.4,1.1c0,0.7,0.4,1.2,1,1.4
			v10.1c0,1.4,1.1,2.6,2.6,2.6h10.2c1.4,0,2.6-1.1,2.6-2.6V24.4c0.2-0.1,0.4-0.2,0.6-0.4c0.3-0.3,0.4-0.7,0.4-1.1
			c0-0.7-0.5-1.4-1.2-1.5c0.3-1.4,0.6-2.7,0.7-3.8c0.7-0.3,1.2-0.8,1.5-1.5C33.5,15.1,32.8,11.9,32.6,11.3z M29.1,17.3
			c0.2,0.2,0.4,0.3,0.7,0.4c0.2,0.1,0.5,0.1,0.8,0.2c-0.1,1-0.3,2.3-0.7,3.6H27C27.8,19.7,28.5,18.3,29.1,17.3z M22.5,11.9h3.1v1.2
			h-1c-0.3,0-0.5,0.2-0.5,0.5c0,0.3,0.2,0.5,0.5,0.5h1v1h-1c-0.3,0-0.5,0.2-0.5,0.5s0.2,0.5,0.5,0.5h1v1h-1c-0.3,0-0.5,0.2-0.5,0.5
			s0.2,0.5,0.5,0.5h1v1h-1c-0.3,0-0.5,0.2-0.5,0.5c0,0.3,0.2,0.5,0.5,0.5h1v1.2h-3.1V11.9z M16.5,12.8l2.1,2.5
			c-0.3,0.4-0.7,0.7-1.2,0.8c-0.5,0.1-1,0.1-1.5-0.1L16.5,12.8z M16,17.1c0.2,0,0.5,0.1,0.7,0.1c0.3,0,0.6,0,0.9-0.1
			c0.5-0.1,1-0.4,1.4-0.7l0.5,2l0.8,3.1h-3.2l-0.6-2.3c0,0,0,0,0,0L16,17.1z M30.2,34.5c0,0.8-0.7,1.5-1.5,1.5H18.4
			c-0.8,0-1.5-0.7-1.5-1.5v-10h13.3V34.5z M31.2,23c0,0.1-0.1,0.3-0.1,0.4c-0.1,0.1-0.2,0.1-0.4,0.1H16.4c-0.3,0-0.5-0.2-0.5-0.5
			c0-0.1,0.1-0.3,0.1-0.4c0.1-0.1,0.2-0.1,0.4-0.1H21c0,0,0,0,0,0c0,0,0,0,0,0h5.2c0,0,0,0,0,0c0,0,0,0,0,0h4.1c0,0,0,0,0,0
			c0,0,0,0,0,0h0.4C31,22.5,31.2,22.7,31.2,23z M32.1,15.9c-0.2,0.5-0.6,0.9-1.1,1c-0.3,0.1-0.6,0-0.9-0.1c-0.3-0.1-0.5-0.3-0.7-0.5
			c0,0,0,0,0,0c-0.3-0.4-0.4-1-0.2-1.4c0.2-0.5,1.4-1.6,2.5-2.5C32.1,13.7,32.3,15.3,32.1,15.9z"/>
	</g>
</g>
</svg>
