<?xml version="1.0" encoding="utf-8"?>
<!-- Generator: Adobe Illustrator 21.1.0, SVG Export Plug-In . SVG Version: 6.00 Build 0)  -->
<svg version="1.1" id="Capa_1" xmlns="http://www.w3.org/2000/svg" xmlns:xlink="http://www.w3.org/1999/xlink" x="0px" y="0px"
	 viewBox="0 0 48 48" style="enable-background:new 0 0 48 48;" xml:space="preserve">
<g>
	<path d="M13.4,15c0.1,0,0.2,0,0.3-0.1c0.1-0.1,0.1-0.2,0.1-0.3c0-0.1,0-0.2-0.1-0.3c-0.1-0.1-0.2-0.1-0.3-0.1c-0.1,0-0.2,0-0.3,0.1
		c-0.1,0.1-0.1,0.2-0.1,0.3c0,0.1,0,0.2,0.1,0.3C13.2,14.9,13.3,15,13.4,15z"/>
	<path d="M14.7,15c0.1,0,0.2,0,0.3-0.1c0.1-0.1,0.1-0.2,0.1-0.3c0-0.1,0-0.2-0.1-0.3c-0.1-0.1-0.2-0.1-0.3-0.1s-0.2,0-0.3,0.1
		c-0.1,0.1-0.1,0.2-0.1,0.3c0,0.1,0,0.2,0.1,0.3C14.5,14.9,14.6,15,14.7,15z"/>
	<path d="M15.9,15c0.1,0,0.2,0,0.3-0.1c0.1-0.1,0.1-0.2,0.1-0.3c0-0.1,0-0.2-0.1-0.3c-0.1-0.1-0.2-0.1-0.3-0.1c-0.1,0-0.2,0-0.3,0.1
		c-0.1,0.1-0.1,0.2-0.1,0.3c0,0.1,0,0.2,0.1,0.3C15.7,14.9,15.8,15,15.9,15z"/>
	<path d="M31,24.2c-0.5,0-0.9-0.4-0.9-0.9v-1.3c0-0.9-0.7-1.6-1.6-1.6H28c-0.2,0-0.4,0.2-0.4,0.4s0.2,0.4,0.4,0.4h0.4
		c0.5,0,0.9,0.4,0.9,0.9v1.3c0,0.5,0.2,1,0.6,1.3c-0.4,0.3-0.6,0.8-0.6,1.3v1.3c0,0.5-0.4,0.9-0.9,0.9H28c-0.2,0-0.4,0.2-0.4,0.4
		s0.2,0.4,0.4,0.4h0.4c0.9,0,1.6-0.7,1.6-1.6v-1.3c0-0.5,0.4-0.9,0.9-0.9c0.2,0,0.4-0.2,0.4-0.4S31.2,24.2,31,24.2z"/>
	<path d="M20.1,23.3v-1.3c0-0.5,0.4-0.9,0.9-0.9h0.4c0.2,0,0.4-0.2,0.4-0.4s-0.2-0.4-0.4-0.4h-0.4c-0.9,0-1.6,0.7-1.6,1.6v1.3
		c0,0.5-0.4,0.9-0.9,0.9c-0.2,0-0.4,0.2-0.4,0.4s0.2,0.4,0.4,0.4c0.5,0,0.9,0.4,0.9,0.9v1.3c0,0.9,0.7,1.6,1.6,1.6h0.4
		c0.2,0,0.4-0.2,0.4-0.4S21.6,28,21.4,28h-0.4c-0.5,0-0.9-0.4-0.9-0.9v-1.3c0-0.5-0.2-1-0.6-1.3C19.9,24.3,20.1,23.8,20.1,23.3z"/>
	<path d="M26.8,26.3c-0.1,0-0.2,0-0.3,0.1c-0.1,0.1-0.1,0.2-0.1,0.3s0,0.2,0.1,0.3c0.1,0.1,0.2,0.1,0.3,0.1c0.1,0,0.2,0,0.3-0.1
		c0.1-0.1,0.1-0.2,0.1-0.3s0-0.2-0.1-0.3C27,26.3,26.9,26.3,26.8,26.3z"/>
	<path d="M24.7,26.3c-0.1,0-0.2,0-0.3,0.1c-0.1,0.1-0.1,0.2-0.1,0.3c0,0.1,0,0.2,0.1,0.3c0.1,0.1,0.2,0.1,0.3,0.1s0.2,0,0.3-0.1
		c0.1-0.1,0.1-0.2,0.1-0.3s0-0.2-0.1-0.3C24.9,26.3,24.8,26.3,24.7,26.3z"/>
	<path d="M22.6,26.3c-0.1,0-0.2,0-0.3,0.1c-0.1,0.1-0.1,0.2-0.1,0.3s0,0.2,0.1,0.3c0.1,0.1,0.2,0.1,0.3,0.1c0.1,0,0.2,0,0.3-0.1
		c0.1-0.1,0.1-0.2,0.1-0.3s0-0.2-0.1-0.3C22.8,26.3,22.7,26.3,22.6,26.3z"/>
	<path d="M17.6,15h15.9c0.2,0,0.4-0.2,0.4-0.4s-0.2-0.4-0.4-0.4H17.6c-0.2,0-0.4,0.2-0.4,0.4S17.4,15,17.6,15z"/>
	<path d="M35.2,15H36c0.2,0,0.4-0.2,0.4-0.4s-0.2-0.4-0.4-0.4h-0.8c-0.2,0-0.4,0.2-0.4,0.4S34.9,15,35.2,15z"/>
	<path d="M36,12.5H13.4c-1.1,0-2.1,0.9-2.1,2.1v16.7c0,1.1,0.9,2.1,2.1,2.1H36c1.1,0,2.1-0.9,2.1-2.1V14.6
		C38.1,13.4,37.1,12.5,36,12.5z M13.4,13.3H36c0.7,0,1.3,0.6,1.3,1.3v1.3H12.1v-1.3C12.1,13.9,12.7,13.3,13.4,13.3z M36,32.6H13.4
		c-0.7,0-1.3-0.6-1.3-1.3V16.6h25.1v14.7C37.3,32,36.7,32.6,36,32.6z"/>
</g>
</svg>
