<?xml version="1.0" encoding="utf-8"?>
<!-- Generator: Adobe Illustrator 18.1.1, SVG Export Plug-In . SVG Version: 6.00 Build 0)  -->
<svg version="1.1" id="Layer_1" xmlns="http://www.w3.org/2000/svg" xmlns:xlink="http://www.w3.org/1999/xlink" x="0px" y="0px"
	 viewBox="0 0 64 64" enable-background="new 0 0 64 64" xml:space="preserve">
<g>
	<path d="M47.8,36.1h-1.4c-0.4,0-0.7,0.3-0.7,0.7c0,0.4,0.3,0.7,0.7,0.7h1.4c0.4,0,0.7-0.3,0.7-0.7C48.6,36.5,48.2,36.1,47.8,36.1
		L47.8,36.1z M47.8,36.1"/>
	<path d="M39.2,43.3H24.8c-1.2,0-2.2,1-2.2,2.2c0,1.2,1,2.2,2.2,2.2h14.4c1.2,0,2.2-1,2.2-2.2C41.4,44.3,40.4,43.3,39.2,43.3
		L39.2,43.3z M39.2,46.2H24.8c-0.4,0-0.7-0.3-0.7-0.7c0-0.4,0.3-0.7,0.7-0.7h14.4c0.4,0,0.7,0.3,0.7,0.7
		C39.9,45.9,39.6,46.2,39.2,46.2L39.2,46.2z M39.2,46.2"/>
	<g>
		<defs>
			<rect id="SVGID_1_" x="8.9" y="8.7" width="46.2" height="46.2"/>
		</defs>
		<clipPath id="SVGID_2_">
			<use xlink:href="#SVGID_1_"  overflow="visible"/>
		</clipPath>
		<path clip-path="url(#SVGID_2_)" d="M16.8,31.8c0.4,0,0.7-0.3,0.7-0.7V18.8h28.8v12.3c0,0.4,0.3,0.7,0.7,0.7
			c0.4,0,0.7-0.3,0.7-0.7V18.8c0-0.8-0.6-1.4-1.4-1.4v-1.4c0-0.8-0.6-1.4-1.4-1.4v-1.4c0-0.8-0.6-1.4-1.4-1.4v-1.4
			c0-0.8-0.6-1.4-1.4-1.4H21.9c-0.8,0-1.4,0.6-1.4,1.4v1.4c-0.8,0-1.4,0.6-1.4,1.4v1.4c-0.8,0-1.4,0.6-1.4,1.4v1.4
			c-0.8,0-1.4,0.6-1.4,1.4v12.3C16.1,31.5,16.4,31.8,16.8,31.8L16.8,31.8z M21.9,10.2h20.2v1.4H21.9V10.2z M20.4,13.1h23.1v1.4H20.4
			V13.1z M19,15.9h26v1.4H19V15.9z M19,15.9"/>
		<path clip-path="url(#SVGID_2_)" d="M55,35.2c0-0.2-0.1-0.3-0.1-0.5l-2.8-12.6c-0.2-1-1.1-1.8-2.1-1.8h0c-0.4,0-0.7,0.3-0.7,0.7
			s0.3,0.7,0.7,0.7h0c0.4,0,0.7,0.3,0.7,0.6c0,0,0,0,0,0l2.4,10.9c-0.1,0-0.2,0-0.3,0H11.1c-0.1,0-0.2,0-0.3,0l2.4-10.9c0,0,0,0,0,0
			c0.1-0.4,0.4-0.6,0.7-0.6h0c0.4,0,0.7-0.3,0.7-0.7s-0.3-0.7-0.7-0.7h0c-1.1,0-2,0.8-2.1,1.8L9,34.7C9,34.9,8.9,35,8.9,35.2
			c0,0,0,0.1,0,0.1c0,0,0,0,0,0.1v17.3c0,1.2,1,2.2,2.2,2.2h41.8c1.2,0,2.2-1,2.2-2.2V35.4c0,0,0,0,0-0.1
			C55.1,35.3,55.1,35.3,55,35.2L55,35.2z M53.6,52.7c0,0.4-0.3,0.7-0.7,0.7H11.1c-0.4,0-0.7-0.3-0.7-0.7V38.3c0-0.4,0.3-0.7,0.7-0.7
			h32.4c0.4,0,0.7-0.3,0.7-0.7c0-0.4-0.3-0.7-0.7-0.7H11.1c-0.3,0-0.5,0-0.7,0.1v-0.8c0,0,0,0,0,0l0.1-0.3c0.1-0.3,0.4-0.4,0.7-0.4
			h41.8c0.3,0,0.5,0.2,0.7,0.4l0.1,0.3c0,0,0,0,0,0v0.8c-0.2-0.1-0.5-0.1-0.7-0.1h-2.2c-0.4,0-0.7,0.3-0.7,0.7
			c0,0.4,0.3,0.7,0.7,0.7h2.2c0.4,0,0.7,0.3,0.7,0.7V52.7z M53.6,52.7"/>
	</g>
	<path d="M29.8,26c0.4,0,0.7-0.3,0.7-0.7c0-0.4-0.3-0.7-0.7-0.7h-5.8c-0.4,0-0.7,0.3-0.7,0.7c0,0.4,0.3,0.7,0.7,0.7H29.8z M29.8,26"
		/>
	<path d="M34.9,22.4c0-0.4-0.3-0.7-0.7-0.7H24.1c-0.4,0-0.7,0.3-0.7,0.7c0,0.4,0.3,0.7,0.7,0.7h10.1C34.5,23.2,34.9,22.8,34.9,22.4
		L34.9,22.4z M34.9,22.4"/>
	<path d="M20.4,23.2h0.7c0.4,0,0.7-0.3,0.7-0.7c0-0.4-0.3-0.7-0.7-0.7h-0.7c-0.4,0-0.7,0.3-0.7,0.7C19.7,22.8,20,23.2,20.4,23.2
		L20.4,23.2z M20.4,23.2"/>
	<path d="M20.4,26h0.7c0.4,0,0.7-0.3,0.7-0.7c0-0.4-0.3-0.7-0.7-0.7h-0.7c-0.4,0-0.7,0.3-0.7,0.7C19.7,25.7,20,26,20.4,26L20.4,26z
		 M20.4,26"/>
	<path d="M20.4,30.4c-0.4,0-0.7,0.3-0.7,0.7c0,0.4,0.3,0.7,0.7,0.7h6.5c0.4,0,0.7-0.3,0.7-0.7c0-0.4-0.3-0.7-0.7-0.7H20.4z
		 M20.4,30.4"/>
	<path d="M32.7,28.2c0-0.4-0.3-0.7-0.7-0.7H20.4c-0.4,0-0.7,0.3-0.7,0.7c0,0.4,0.3,0.7,0.7,0.7H32C32.4,28.9,32.7,28.6,32.7,28.2
		L32.7,28.2z M32.7,28.2"/>
	<path d="M43.5,27.5h-3.6c-0.4,0-0.7,0.3-0.7,0.7c0,0.4,0.3,0.7,0.7,0.7h3.6c0.4,0,0.7-0.3,0.7-0.7C44.2,27.8,43.9,27.5,43.5,27.5
		L43.5,27.5z M43.5,27.5"/>
	<path d="M34.9,31.8h8.7c0.4,0,0.7-0.3,0.7-0.7c0-0.4-0.3-0.7-0.7-0.7h-8.7c-0.4,0-0.7,0.3-0.7,0.7C34.1,31.5,34.5,31.8,34.9,31.8
		L34.9,31.8z M34.9,31.8"/>
</g>
</svg>
