<?xml version="1.0" encoding="utf-8"?>
<!-- Generator: Adobe Illustrator 21.1.0, SVG Export Plug-In . SVG Version: 6.00 Build 0)  -->
<svg version="1.1" id="Layer_1" xmlns="http://www.w3.org/2000/svg" xmlns:xlink="http://www.w3.org/1999/xlink" x="0px" y="0px"
	 viewBox="0 0 17.6 42" style="enable-background:new 0 0 17.6 42;" xml:space="preserve">
<path d="M0,16.6v8.8c0,4.8,4,8.8,8.8,8.8s8.8-4,8.8-8.8v-8.8c0-4.8-4-8.8-8.8-8.8S0,11.8,0,16.6z M8.8,9.8c3.8,0,6.8,3.1,6.8,6.8
	v8.8c0,3.8-3.1,6.8-6.8,6.8S2,29.2,2,25.4v-8.8C2,12.8,5,9.8,8.8,9.8z"/>
<path d="M8.8,18.1c0.5,0,1-0.4,1-1v-2.9c0-0.5-0.4-1-1-1s-1,0.4-1,1v2.9C7.8,17.6,8.3,18.1,8.8,18.1z"/>
<path d="M8.1,41.7C8.3,41.9,8.5,42,8.8,42c0.2,0,0.5-0.1,0.7-0.3l2.4-2.4c0.4-0.4,0.4-1,0-1.4c-0.4-0.4-1-0.4-1.4,0l-1.8,1.8L7,37.9
	c-0.4-0.4-1-0.4-1.4,0c-0.4,0.4-0.4,1,0,1.4L8.1,41.7z"/>
<path d="M8.1,0.3L5.7,2.7c-0.4,0.4-0.4,1,0,1.4c0.2,0.2,0.4,0.3,0.7,0.3c0.2,0,0.5-0.1,0.7-0.3l1.8-1.8l1.8,1.8
	c0.2,0.2,0.4,0.3,0.7,0.3s0.5-0.1,0.7-0.3c0.4-0.4,0.4-1,0-1.4L9.5,0.3C9.1-0.1,8.5-0.1,8.1,0.3z"/>
</svg>
