<?xml version="1.0" encoding="utf-8"?>
<!-- Generator: Adobe Illustrator 18.1.1, SVG Export Plug-In . SVG Version: 6.00 Build 0)  -->
<svg version="1.1" id="Layer_1" xmlns="http://www.w3.org/2000/svg" xmlns:xlink="http://www.w3.org/1999/xlink" x="0px" y="0px"
	 viewBox="0 0 64 64" enable-background="new 0 0 64 64" xml:space="preserve">
<g>
	<path d="M16,20.8c2.8,0,5.1-2.1,5.5-4.8h31.3c0.4,0,0.8-0.4,0.8-0.8c0-0.4-0.4-0.8-0.8-0.8H21.5c-0.4-2.7-2.7-4.8-5.5-4.8
		c-3.1,0-5.6,2.5-5.6,5.6C10.4,18.3,12.9,20.8,16,20.8L16,20.8z M16,11.2c2.2,0,4,1.8,4,4c0,2.2-1.8,4-4,4c-2.2,0-4-1.8-4-4
		C12,13,13.8,11.2,16,11.2L16,11.2z M16,11.2"/>
	<path d="M48,43.2c-2.8,0-5.1,2.1-5.5,4.8H11.2c-0.4,0-0.8,0.4-0.8,0.8c0,0.4,0.4,0.8,0.8,0.8h31.3c0.4,2.7,2.7,4.8,5.5,4.8
		c3.1,0,5.6-2.5,5.6-5.6C53.6,45.7,51.1,43.2,48,43.2L48,43.2z M48,52.8c-2.2,0-4-1.8-4-4c0-2.2,1.8-4,4-4c2.2,0,4,1.8,4,4
		C52,51,50.2,52.8,48,52.8L48,52.8z M48,52.8"/>
	<path d="M52.8,31.2H37.9c-0.3-2.9-2.8-5.1-5.7-5.1c-3,0-5.4,2.3-5.7,5.1H11.2c-0.4,0-0.8,0.4-0.8,0.8c0,0.4,0.4,0.8,0.8,0.8h15.3
		c0.5,2.7,2.8,4.8,5.7,4.8c2.8,0,5.2-2.1,5.7-4.8h15c0.4,0,0.8-0.4,0.8-0.8C53.6,31.6,53.2,31.2,52.8,31.2L52.8,31.2z M32.2,36
		c-2.3,0-4.2-1.9-4.2-4.2c0-2.3,1.9-4.2,4.2-4.2c2.3,0,4.2,1.9,4.2,4.2C36.3,34.1,34.5,36,32.2,36L32.2,36z M32.2,36"/>
</g>
</svg>
