<?xml version="1.0" encoding="utf-8"?>
<!-- Generator: Adobe Illustrator 18.1.1, SVG Export Plug-In . SVG Version: 6.00 Build 0)  -->
<svg version="1.1" id="Layer_1" xmlns="http://www.w3.org/2000/svg" xmlns:xlink="http://www.w3.org/1999/xlink" x="0px" y="0px"
	 viewBox="0 0 64 64" enable-background="new 0 0 64 64" xml:space="preserve">
<line fill="none" stroke="#000000" stroke-width="2" stroke-linecap="round" stroke-miterlimit="10" x1="22" y1="15" x2="57" y2="15"/>
<line fill="none" stroke="#000000" stroke-width="2" stroke-linecap="round" stroke-miterlimit="10" x1="22" y1="31" x2="57" y2="31"/>
<line fill="none" stroke="#000000" stroke-width="2" stroke-linecap="round" stroke-miterlimit="10" x1="22" y1="48" x2="57" y2="48"/>
<polygon fill="none" stroke="#000000" stroke-width="1.5" stroke-linecap="round" stroke-linejoin="round" stroke-miterlimit="10" points="
	11.8,9.3 13.4,12.6 17.1,13.1 14.4,15.7 15.1,19.3 11.8,17.6 8.6,19.3 9.2,15.7 6.6,13.1 10.2,12.6 "/>
<polygon fill="none" stroke="#000000" stroke-width="1.5" stroke-linecap="round" stroke-linejoin="round" stroke-miterlimit="10" points="
	11.8,25.3 13.4,28.6 17.1,29.1 14.4,31.7 15.1,35.3 11.8,33.6 8.6,35.3 9.2,31.7 6.6,29.1 10.2,28.6 "/>
<polygon fill="none" stroke="#000000" stroke-width="1.5" stroke-linecap="round" stroke-linejoin="round" stroke-miterlimit="10" points="
	11.8,43.3 13.4,46.6 17.1,47.1 14.4,49.7 15.1,53.3 11.8,51.6 8.6,53.3 9.2,49.7 6.6,47.1 10.2,46.6 "/>
</svg>
